<?xml version="1.0" encoding="utf-8"?>
<!-- Generator: Adobe Illustrator 21.0.2, SVG Export Plug-In . SVG Version: 6.00 Build 0)  -->
<svg version="1.1" id="Calque_1" xmlns="http://www.w3.org/2000/svg" xmlns:xlink="http://www.w3.org/1999/xlink" x="0px" y="0px"
	 viewBox="0 0 609 163.5" style="enable-background:new 0 0 609 163.5;" xml:space="preserve">
<style type="text/css">
	.st0{fill:#E30613;}
	.st1{fill:#020203;}
</style>
<path class="st0" d="M78.6,92.1c-4.4,4.9-10.9,7.8-17.7,7.8c-6.3,0-12.4-2.5-16.8-6.9c-6.1-6.1-6.2-12.1-6.2-27.3
	c0-15.2,0.1-21.2,6.2-27.3c4.4-4.4,10.5-6.9,16.8-6.9c11.8,0,20.9,7.7,23,19.7h-5.1c-2-9.3-8.8-15.1-17.9-15.1
	c-4.8,0-9.4,1.8-12.8,5.2C43.4,46,43,51.2,43,65.6c0,14.5,0.4,19.7,5.2,24.5c3.4,3.4,7.9,5.2,12.8,5.2c5.3,0,10.5-2.3,14-6.5
	c2.9-3.6,4.1-7.6,4.1-13.3v-6.1H60.9v-4.5h23.2v11C84.1,82.8,82.6,87.8,78.6,92.1"/>
<path class="st0" d="M127,36.5h-19.9v27.2H127c8.6,0,14.8-4.3,14.8-13.6C141.8,40.9,135.6,36.5,127,36.5 M141.7,99.3l-16.1-31h-18.5
	v31h-5.1V32h25.6c11,0,19.3,6.3,19.3,18.1c0,10-6.1,16.5-15.5,18.1l16.3,31.1H141.7z"/>
<path class="st0" d="M182.2,38.8l-14.1,39.6h28.2L182.2,38.8 M203.7,99.3l-5.9-16.4h-31.4l-5.9,16.4h-5.5L179.9,32h4.5l24.8,67.3
	H203.7z"/>
<polyline class="st0" points="265,99.3 226.1,40.8 226.1,99.3 221,99.3 221,32 226.1,32 265,90.3 265,32 270.1,32 270.1,99.3 
	265,99.3 "/>
<path class="st0" d="M326.7,41.7c-3.9-4-9.1-5.2-14.5-5.2h-16.3v58.2h16.3c5.4,0,10.6-1.2,14.5-5.2c5.4-5.5,5-17.4,5-24.9
	C331.7,57.2,332,47.2,326.7,41.7 M330.2,93.1c-4,4-9.8,6.1-16.8,6.1h-22.6V32h22.6c7,0,12.9,2.2,16.8,6.1c6.8,6.8,6.5,17.5,6.5,26.6
	C336.8,73.7,337.1,86.3,330.2,93.1z"/>
<polyline class="st1" points="352.4,99.3 352.4,32 365.5,32 365.5,87.5 396,87.5 396,99.3 352.4,99.3 "/>
<polyline class="st1" points="424.8,71.7 424.8,99.3 411.8,99.3 411.8,71.7 391.6,32 405.8,32 418.4,59.1 430.8,32 445.1,32 
	424.8,71.7 "/>
<path class="st1" d="M483.2,46.7c-1.9-2.2-4.8-3.6-8.4-3.6c-3.6,0-6.6,1.4-8.5,3.6c-2.6,2.8-3.2,6-3.2,18.9
	c0,12.9,0.7,16.1,3.2,18.9c1.9,2.2,4.9,3.6,8.5,3.6c3.6,0,6.5-1.4,8.4-3.6c2.6-2.8,3.3-6,3.3-18.9C486.5,52.7,485.8,49.5,483.2,46.7
	 M493,92.5c-4.7,4.7-10.5,7.4-18.1,7.4c-7.7,0-13.5-2.6-18.2-7.4c-6.8-6.8-6.6-15.2-6.6-26.8c0-11.6-0.2-20,6.6-26.8
	c4.7-4.7,10.6-7.4,18.2-7.4c7.7,0,13.4,2.6,18.1,7.4c6.8,6.8,6.7,15.2,6.7,26.8C499.7,77.2,499.8,85.7,493,92.5z"/>
<polyline class="st1" points="552.9,99.3 526.2,58 526.2,99.3 513.1,99.3 513.1,32 524.8,32 551.5,73.2 551.5,32 564.6,32 
	564.6,99.3 552.9,99.3 "/>
<g>
	<path d="M484.4,120.5L484.4,120.5c0.9-1.4,1.9-2.1,3.5-2.1c2.4,0,4.8,1,4.8,7.5c0,3.7-0.1,8.1-5,8.1c-1.4,0-2.5-0.6-3.3-1.8h-0.1
		v7.2H482v-20.7h2.4V120.5z M490.2,126c0-2.3,0-5.6-3.1-5.6c-3,0-2.7,4.2-2.7,6.4c0,2,0.1,5.2,2.8,5.2
		C489.9,132,490.2,130,490.2,126z"/>
	<path d="M316.5,131.6L316.5,131.6c-0.8,1.7-2,2.5-3.8,2.5c-3.2,0-4.1-2.1-4.1-4.9c0-4.5,4.5-4.8,7.9-4.7c0.1-2,0.1-4.2-2.5-4.2
		c-1.6,0-2.5,1.1-2.3,2.7H309c0.1-3.4,1.9-4.5,5.1-4.5c3.9,0,4.9,2,4.9,4.5v7.2c0,1.2,0.1,2.4,0.3,3.6h-2.7V131.6z M311.1,129.3
		c0,1.5,0.7,2.8,2.3,2.8c1.5,0,3.3-0.9,3.1-5.8C314.2,126.3,311.1,126.1,311.1,129.3z"/>
	<path d="M360.4,133.7v-10.4c0-1.5-0.4-2.9-2.4-2.9c-0.7,0-1.8,0.4-2.1,1c-0.4,0.7-0.6,1.6-0.6,2.2v10.1h-2.4v-11.9
		c0-1-0.1-2.1-0.1-3.1h2.6v1.9h0.1c0.7-1.6,2-2.2,3.7-2.2c1.4,0,2.9,0.6,3.5,1.9c0.8-1.6,2.2-1.9,3.6-1.9c1.6,0,4.1,0.4,4.1,3.9
		v11.4h-2.4v-10.4c0-1.5-0.4-2.9-2.4-2.9c-0.9,0-1.2,0-1.8,0.6c-0.7,0.6-0.8,2.1-0.8,2.6v10.1H360.4z"/>
	<path d="M388.1,127c0,4.2,1.1,5,3,5c1.7,0,2.5-1.3,2.6-2.9h2.7c0,3.3-2.1,4.8-5.2,4.8c-3.2,0-5.7-1-5.7-7.6c0-4.4,0.5-8,5.7-8
		c4.3,0,5.3,2.3,5.3,7.3v1.3H388.1z M393.9,125.2c0-4.4-1.2-4.9-3-4.9c-1.5,0-2.8,0.7-2.9,4.9H393.9z M394.5,112.3l-3.9,4.2h-2
		l2.6-4.2H394.5z"/>
	<path d="M413,118.7v-2.9l2.4-1.1v4h3.3v1.8h-3.3v9.2c0,1,0,2.2,2.2,2.2c0.2,0,0.6-0.1,1.1-0.1v1.9c-0.8,0.1-1.6,0.2-2.4,0.2
		c-2.3,0-3.4-1-3.4-2.7v-10.7h-2.5v-1.8H413z"/>
	<path d="M436.9,121L436.9,121c1.1-2.3,2.3-2.6,4.7-2.6v2.5c-0.2,0-0.4-0.1-0.7-0.1c-0.2,0-0.4-0.1-0.7-0.1c-2.7,0-3.4,2.1-3.4,4.1
		v8.9h-2.4v-15h2.4V121z"/>
	<path d="M455.5,126.4c0-4.4,0.5-8,5.7-8c5.2,0,5.7,3.6,5.7,8c0,6.6-2.5,7.6-5.7,7.6C458,134,455.5,133.1,455.5,126.4z M464.3,125.4
		c0-4.1-1.3-5-3.1-5c-1.9,0-3.2,0.9-3.2,5c0,4.9,0.6,6.6,3.2,6.6C463.7,132,464.3,130.3,464.3,125.4z"/>
	<path d="M507.7,126.4c0-4.4,0.5-8,5.7-8c5.2,0,5.7,3.6,5.7,8c0,6.6-2.5,7.6-5.7,7.6C510.2,134,507.7,133.1,507.7,126.4z
		 M516.6,125.4c0-4.1-1.3-5-3.2-5c-1.9,0-3.1,0.9-3.1,5c0,4.9,0.6,6.6,3.1,6.6C515.9,132,516.6,130.3,516.6,125.4z"/>
	<path d="M537.3,133.7h-2.4v-21.5h2.4V133.7z"/>
	<path d="M555.3,127c0,4.2,1.1,5,3,5c1.7,0,2.5-1.3,2.6-2.9h2.7c0,3.3-2.1,4.8-5.2,4.8c-3.2,0-5.7-1-5.7-7.6c0-4.4,0.5-8,5.7-8
		c4.3,0,5.3,2.3,5.3,7.3v1.3H555.3z M561.2,125.2c0-4.4-1.2-4.9-3-4.9c-1.5,0-2.8,0.7-2.9,4.9H561.2z"/>
	<path d="M294.6,133.7h-2.4v-21.5h2.4V133.7z"/>
</g>
</svg>
